# xmcd
#
# Track frame offsets: 
#        150
#        16103
#        31745
#        45087
#        58757
#        73572
#        86494
#        100406
#        117601
#        134076
#        145454
#        156767
#        174290
#        183496
#        199888
#        217069
#        238120
#
# Disc length: 3341 seconds
#
# Revision: 0
# Processed by: cddbd v1.5.2PL0 Copyright (c) Steve Scherf et al.
# Submitted via: ExactAudioCopy v0.95b4
#
DISCID=f40d0b11
DTITLE=Yves Montand - Sous Le Siel De Paris
DYEAR=2004
DGENRE=
TTITLE0=C'est Si  Bon
TTITLE1=Les Feuilles Mortes
TTITLE2=Sous Le Siel De Paris
TTITLE3=Trous Petites Notes De Musique
TTITLE4=La Vi En Rose
TTITLE5=Mon Pot' Le Gitan
TTITLE6=A Paris
TTITLE7=Mon Manege A Moi
TTITLE8=Planter Cafe
TTITLE9=A Bicyclette
TTITLE10=En Sortant De L'ecole
TTITLE11=Aux Marches Du Palais
TTITLE12=Girofle, Girofla
TTITLE13=Il N'y A Plus D'apres
TTITLE14=La Butte Rouge
TTITLE15=Le Temps Des Cerises
TTITLE16=La Chansonnette
EXTD=
EXTT0=
EXTT1=
EXTT2=
EXTT3=
EXTT4=
EXTT5=
EXTT6=
EXTT7=
EXTT8=
EXTT9=
EXTT10=
EXTT11=
EXTT12=
EXTT13=
EXTT14=
EXTT15=
EXTT16=
PLAYORDER=
